<?xml version="1.0" encoding="UTF-8"?>
<svg id="Layer_2" data-name="Layer 2" xmlns="http://www.w3.org/2000/svg" viewBox="0 0 288 288">
  <defs>
    <style>
      .cls-1 {
        fill: #f1f1f1;
      }

      .cls-2 {
        fill: #6e4b3a;
      }

      .cls-3 {
        fill: #d3af37;
      }

      .cls-4 {
        fill: #fff;
      }

      .cls-5 {
        fill: #0e0456;
      }
    </style>
  </defs>
  <g>
    <path class="cls-4" d="M147.63,228.65c-.33,1.31-1.11,3.06-2.29,1.35-.35-.84,1.65-1.61,2.29-1.35Z"/>
    <g>
      <path class="cls-4" d="M221.9,185.18c.35.91-.91,3.05-1.87,2.57-1.79-.92,1.51-2.95,1.87-2.57Z"/>
      <g>
        <path class="cls-4" d="M223.98,106.21c.73-.1,1.12.67,1.29,1.3.92,3.44-4.79,4.05-5.13.54.12-.18,3.62-1.8,3.84-1.84Z"/>
        <path class="cls-4" d="M230.77,137.89c.11.61-.04.43-.34.6-.44.24-3.8,1.7-3.95,1.55l-.27-3.22,4.57,1.08Z"/>
      </g>
    </g>
    <path class="cls-4" d="M204.43,80.71c3.04,1.41,1.87,6.13-1.5,4.13-2.4-1.42.38-2.89,1.5-4.13Z"/>
    <path class="cls-4" d="M71.69,217.02c-53.09-53.75-31.45-144.5,40.46-167.58,26.47-8.5,57.02-5.69,81.28,7.82,49.42,27.53,66.58,89.75,38.19,139.06-33.48,58.16-112.66,68.56-159.93,20.7ZM211.08,217.84c56.63-53.29,33.56-147.96-41.96-167.44-36.37-9.38-75.21,1.75-99.89,30.02-43,49.24-27.03,125.6,31.21,154.22,37.21,18.29,80.67,11.41,110.65-16.79Z"/>
    <path d="M138.31,159.54l.8-.27v.81s-.8-.27-.8-.27c-.36.57.68,2.24.53,2.42-.29.34-1.08-.92-1.32-.97l.51-2.79.27,1.07Z"/>
    <path class="cls-4" d="M169.67,151.68l-.27,3.49c-.58-.08-.93-.51-1.34.13,2.05,1.08-.29,1.37.27,2.55h-1.08c-.32.96,1.09.46,1.08.68-.22.76-.11,1.41-1.08,1.21l.54,1.34h-1.07c-.25.72.47.43.54.71.28,1.14-.59.91-.81,1.31,0,.24.48.03.55.31.16.63-.84,3.86-.98,4.84s-.08,2.05-.11,3.05l-.8-.27c-.25.95.67.59.56,1.48-.07.54-.56.36-.57.56-.05.64.27,2.24.21,3.12-.29,4.38-.51,7.71-4.36,10.42-.73-1.52-.51-.03-.64.14-.6.77-2.32.94-3.14,1.47-.22-.43.01-.66-.66-.54l-.03.76c-9.37,1.95-17.67,10.37-27.51,10.28-1.83-.02-3.91-.85-5.67-1.07-3.67-.46-7.71.37-10.84-2.06-4.13-3.2-1.61-5.48-1.12-9.42.13-1.01-.03-2.05.03-3.06.82.85,1.57.01,2.56-.01,1.51-.03,2.66.01,4.08.22.67.1,1.61.2,2.22-.08.31-.14.8-.93.95-.93.27,0,1.41,2.26,3.73,1.04.4-.21.85-.96,1.15-1.01.37-.06,1.23.9,1.88.97,1.47.15,2.86-.66,3.73-1.8,1.39,1.79,2.91,1.66,4.77.53,1.47-.89,1.02-.08,2.46-.26,1.11-.14,3.91-.81,5.12-1.1,1.4-.33,2.42-1.11,3.77-1.59.43.27-.09.59-.27.81-.26.31-1.43,1.78-1.53,1.84-.17.1-.99-.45-1.42.84l-.4-.53c.19,1.56-.9.82-1.08,1.88,4.71-.12,7.9-4.72,9.33-8.81,1.81-5.21,2.15-10.73,2.63-16.19,3.36-2.38,3.36,1.09,5.74,1.84.44-.87,2.34-1.69,2.87-.5.79-.48-.16-.66,0-1.06.3-.79,1.89-2.09,2.16-2.7.15-.35-.13-.73-.01-1.07.23-.69.87-1.26.68-2.15l.53.27-.27-1.34c.72-.3.64.79.94.8.12,0,1.43-1.51,2.01-1.34Z"/>
    <path class="cls-4" d="M162.89,86.73c.11.13,0,.51.13.64.21.22.89.09,1.15.61.54,1.07-.06,3.93,1.61.8h.53c.31,1.25,1.12-.03,1.48.13.23.1,2.75,2.12,2.82,2.28.12.26-.22.71-.13.83l.5-.24c.6,1.58,2.11,2.77,2.19,4.54l2.15-.14c.55,1.06,2.03,1.45,2.14,2.71.03.33-.22.69-.17,1.02.05.36.72.88.45,1.52l-.8-.53c.7.83-.71,2.3-1.41,2.75-.77.48-1.8.18-1.55,1.28l-1.07-.67.54-.53-1.55-1.67-.86-2.23c.12.57-.8.78-.82.97-.11,1.19,2.4,3.96,1.57,4.9-.36.41-1.91.68-2.37.04l.27,1.07c-1.31.06-3.34,1.19-4.5,1.29-.51.04-.96-.29-1.48-.17-.42.1-.91.8-1.4.78-.18,0-.52-1.28-.95-.82-.49.52,1.19.65.27.95-.42.14-1.11-.13-1.61.13l.12-.55-.63-.62c1.55-2.08,2.33-4.66,2.1-7.28-.05-.53-.54-1.23-.46-1.6.06-.28.62-.67.81-1.06.42-.86.76-2.39,1.73-2.53.67-.09,2.74,1.49,3.19,2.07.84,1.06,1.33,4.1,2,4.46,1.72.92.68-3.83.47-4.51-.44-1.42-1.42-2.26-2.7-2.94-.94-.5-2.83-.85-3.28-1.29s-.44-1.13-.8-1.62c-.81-1.07-1.89-1.81-2.41-3.23-.69,1.5-.44,1.67-2.28,1.74,3.61,1.53,4.61,4.45,2.63,7.88-1.49-.29-3.16,0-4.63-.23-.82-.13-1.41-.89-2.3-.79.05,1.31,1.75,2.53,2.94,2.84.63.16,1.31.01,1.89.26,1.63.68,1.4,3.29,1.35,4.7l-.8-.54c-.37.7.54.86.55.95.11,1.22-2.98,3.78-4.12,4.21-1.74.66-3.97-.07-5.84.48l.13-1.07-.57,1.09c-1.09-.31-4.43.58-5.15-.08-.14-.12-.13-1-.46-1.01-.11,0-.55.48-.36.77.07.1.75-.16.5.57-.46.05-.85-.01-1.27-.2-2.01-.9-.41-1.76-.31-3.26.97-.02,1.94-.13,2.85-.51.79-.33,1.47-1.22,1.88-1.34,1.47-.44,4.89.87,4.92-1.4l-3.49-.54c.1-2.38,1.71-3.3,3.49-4.43-2.04-1.19-4.08.02-4.97,2.01-1.09,2.43-.82,4.06-4.32,4.49l-.79-1.53c-1.2,2.98-2.94,6.24-6.32,7.12-.66.17-5.35.23-6.03.12-.49-.08-.9-.26-1.22-.65,1.08-.81.37-1.74,1.88-2.15l-.74-.52c.65-1.33-.36-2.64.06-3.93.26-.81,1.56-1.61,2.09-2.48.64-1.06.99-3.28,1.43-3.94.25-.38.97-.45,1.34-.81,2.06-2.02,2.26-6.23,4.96-7.13.66-.22,1.26-.06,1.99-.43,1.03-.52,2.15-2.75,3.62-3.63,1.76-1.05,8.5-1.57,9.6.17.26.41-.08.72-.07,1.01.01,1.88,1.07-.16,1.65-.49,1.27-.73,6.17.06,7.07,1.18ZM152.74,89.06c-.34-1.45-3.41-1.86-4.58-1.49-1.7.53-2.66,3.65-2.99,3.86-.48.31-2.39.28-3.58,1.12-2.4,1.7-1.54,3.81-2.43,5.63-.51,1.05-2.85,2.51-2.68,4.31l.41.13c.86-2.31,2.85-3.93,5.37-3.36.13-.72-.69-.63-.9-1.15-.86-2.05,2.44-6.53,4.8-4.77.29-.01,1.34-3.54,2.62-4.09l3.96-.2ZM156.5,92.83l-3.76-.54c.4.67,1.85.95,2.58,1.04.54.07,1.39.3,1.18-.51Z"/>
    <path class="cls-4" d="M142.26,83.96c-.75.76-1.02,1.88-1.9,2.53-1.44,1.07-2.92.42-4.42,2.03-2.45,2.62-1.67,7.76-7.12,6.72-.17.88,1.11.59,1.48,1.34,1.06,2.17-2.76,5.01-3.2,6.97-.19.82.21,2.23.08,3.34-.07.58-.4,1.38-.57,2.1-.22.98-1.09,2.13-1.56.76l-.39-.02-.3.56-.49-.02c-1.31-1-3.26.05-4.08-1.62l-.92.28v-1.08s-1.98.01-1.98.01l-.19-.78c-1.5.17-.84-.46-1.11-.78-.11-.13-.52,0-.76-.24-.13-.13-.83-1.6-.78-1.68l.79-.56c-1.32-.89-1.93-.07-2.49-1.94-.91-3.09,2.46-8.21,5.98-6.93-.09-1.94,1.46-3.42,2.83-4.56,3.02-2.52,6.91-3.68,10.61-4.84-.63,1.85-1.58,3.93-3.49,4.7-.79.32-1.74.28-2.52.71-1.36.75-3.61,4.23-3.4,5.74,1.8.19,2.6-2.59,3.9-3.63s2.9-1.08,4.17-2.01c1.94-1.42,2.52-4.29,4.57-5.64,1.8-1.18,5.12-1.56,7.24-1.49ZM118.08,99.81c-2.33.55-1.43,4.41.67,4.59,1.85.16,4.67-1.95,5.92-3.24,1.07-1.11.17-1.28-.95-.95-2.08.61-6.78,5.81-5.64-.39Z"/>
    <path class="cls-4" d="M140.05,125.15c10.13-.35,15.07,2.75,12.22,13.57-1.21,4.59-3.07,6.01-7.77,6.47-2.35.23-6.03.14-8.14-.93-4.75-2.42-6.96-12.36-4.17-16.74,1.32-2.08,5.57-2.29,7.85-2.36ZM137.09,126.75c-2.84.39-3.77,1.71-4.2,4.4-.82,5.1.61,12.33,6.82,13,7.77.85,11.3-.96,11.96-9.01.24-2.97.09-6.38-3.08-7.66-2.42-.98-8.86-1.09-11.5-.73Z"/>
    <path class="cls-4" d="M102.97,124.08c4.26-.46,12.9-.39,13.74,5.18.44,2.93-1.02,9.55-2.72,12.03-2.47,3.62-10.76,3.73-13.8.73-2.67-2.64-3.69-11.04-2.69-14.53.72-2.51,3.1-3.15,5.46-3.4ZM103.23,125.68c-5.68.83-4.94,12.01-2.35,15.38,2.39,3.11,8.83,2.78,11.69.41,2.04-1.69,3.35-9.11,3.06-11.67-.14-1.24-.5-2.53-1.66-3.17-2.19-1.21-8.24-1.31-10.73-.95Z"/>
    <path class="cls-4" d="M77.44,168.68c2.16-.22,9.96-.24,10.5,2.54.22,1.14-1.44,2.18-2.37,2.63-2.76,1.34-13.18,2.27-14.65-.96-1.34-2.95,4.59-4.02,6.52-4.22ZM77.17,170.02c-1.32.16-3.23.56-3.72,1.94,0,1.54,6.03,1.57,7.15,1.48,1.22-.09,7.06-1.15,4.07-2.75-1.7-.92-5.58-.91-7.5-.68Z"/>
    <path class="cls-4" d="M125.6,172.91c-1.31.22-2.61.71-3.9,0-.87-.82-.06-4.28-.55-5.53.94-1.36,2.14-2.29,3.64-1.05.21.18.82.88.82,1.06v5.51Z"/>
    <path class="cls-4" d="M127.21,172.91v-4.97c0-2.5,3.63-2.17,4.02.28.11.69.12,3.93-.12,4.42-.46.94-2.99.53-3.9.27Z"/>
    <path class="cls-4" d="M119.35,165.99c.68.65.84,5.63.47,6.38-.52,1.07-2.58.36-3.47.03-.42-.3-.15-5.2.25-5.94s2.12-1.06,2.75-.47Z"/>
    <path class="cls-4" d="M136.08,172.37c-1.24.37-2.2.82-3.49.27v-4.97c0-2.15,3.49-1.93,3.49-.81v5.51Z"/>
    <path class="cls-4" d="M110.55,173.98c-1.65,1.21-3.7,1.85-5.46,3-1.38.9-5.33,4.59-6.36,4.9-.53.16-1.32-.37-1.89-.38-.33-.42,7.66-5.84,8.41-6.23.86-.44,4.63-2.12,5.29-1.29Z"/>
    <path class="cls-4" d="M136.35,175.05v3.9c0,1.73-3.4,3.46-3.74,1.06-.1-.74-.15-3.9.11-4.42.46-.94,2.69-.4,3.63-.54Z"/>
    <path class="cls-4" d="M138.42,165.71c.57-.17,1.34-.15,1.85.18.77.63.64,4.55.24,5.4-.31.67-1.95,1.09-2.56.68s-1.12-5.8.47-6.27Z"/>
    <path class="cls-4" d="M131.24,175.59c.2,2.56-.31,6.6-3.76,5.64v-5.64h3.76Z"/>
    <path class="cls-4" d="M125.6,175.59c.12,1.64.18,7.06-2.68,5.77-1.29-.58-.77-4.4-1.08-5.77h3.76Z"/>
    <path class="cls-4" d="M114.8,165.44c.29.28.12,6.11-.35,6.66s-1.68.1-2.1-.25c-.81-.69-.4-4.76.22-5.66.38-.54,1.63-1.33,2.23-.75Z"/>
    <path class="cls-4" d="M116.73,175.33c.91.14,2.65-.39,3.21.42.71,1.04,1.15,6.46-1.59,5.36-1.64-1.7-1.16-3.69-1.61-5.78Z"/>
    <path class="cls-4" d="M137.96,174.52l2.96-.27c.06,2.46.71,6.39-2.96,5.91v-5.64Z"/>
    <path class="cls-4" d="M142.26,171.56c-.22-1.16-.87-5.93.94-5.92.39,0,1.05.64,1.15,1,.09.32.36,3.07.32,3.41-.15,1.29-1.28,1.51-2.41,1.51Z"/>
    <path class="cls-4" d="M110.82,171.83c-3.27-.09-2.41-7-.4-7,1.49,0,.44,2.39.4,3.11-.07,1.29.05,2.6,0,3.89Z"/>
    <path class="cls-4" d="M144.41,173.71c-.45,2,1.32,5.39-2.15,5.37-.17-2.23-1.42-5.97,2.15-5.37Z"/>
    <path class="cls-4" d="M115.32,175.92c.28.3.72,3.88.6,4.33-.08.28-.91,0-.27.98-.77.73-2.72-3.01-2.67-3.91.04-.67,1.66-2.12,2.33-1.4Z"/>
    <path class="cls-4" d="M147.29,170.14c-.28.36-1.57.87-1.76.18l-.05-4.76.73-.39c1.73.07,1.82,4.04,1.08,4.97Z"/>
    <path class="cls-4" d="M147.63,172.91c-.64,1.55.23,3.59-1.21,4.83-.87-1.25-.91-2.69-.92-4.13.75-.4,1.17-.92,2.13-.7Z"/>
    <polygon class="cls-4" points="112.43 179.89 111.9 179.89 112.3 180.97 110.4 178.27 111.62 177.47 112.43 179.89"/>
    <path class="cls-4" d="M74.54,178.55c.27.86-1.21.57-1.72.5-.59-.08-1.87-.19-1.78-1.04l3.49.54Z"/>
    <path class="cls-4" d="M74.27,179.89c.44.33,0,.49-.4.54-.96.12-2.43.32-2.56-.8l2.96.27Z"/>
    <path class="cls-4" d="M74.27,182.31c.13.77-.17.44-.62.57-.68.19-1.55.52-2.06-.17-.13-.65.52-.38.94-.4.58-.03,1.17.02,1.75,0Z"/>
    <path class="cls-4" d="M201.64,84.23c.54,1.24,1.71,1.93,1.5,3.51-.51,3.79-5.35,1.41-4.96-.09.06-.24,3.16-3.62,3.46-3.41Z"/>
    <path class="cls-4" d="M93.35,208.65c.44,1.31-1.12,3.52-2.08,2.02.02-.45,1.78-2.37,2.08-2.02Z"/>
    <path class="cls-4" d="M88.51,211.06c-.83.39-2.47-1.85-2.15-2.15,1.21-.17,2.33.96,2.15,2.15Z"/>
    <path class="cls-4" d="M203.26,207.57c-.05-.04-.25-.81-.15-1.06.23-.56,1.47-1.13,1.89-1.62,1.02.77-1.04,3.19-1.75,2.68Z"/>
    <path class="cls-4" d="M200.3,207.3c-.26.29-1.85-.98-2.01-1.34-.91-1.99,2.82-.41,2.01,1.34Z"/>
    <path class="cls-4" d="M142.53,228.53c-1.31.07-2.01-.9-1.88-2.15,1.24.24,2.18.73,1.88,2.15Z"/>
    <path class="cls-4" d="M109.02,222.27c-.4-.48-.58-1.39.05-1.8,3.2.95,1.77,3.97-.05,1.8Z"/>
    <path class="cls-4" d="M115.92,220.74c.43,1.56-2.64,3.57-2.35,1.52.14-1,1.36-1.79,2.35-1.52Z"/>
    <path class="cls-4" d="M182.3,220.2c.32.42-1.68,2.75-2.42,1.47.47-.93,1.32-2.08,2.42-1.47Z"/>
    <path class="cls-4" d="M175.31,219.93c.78,0,2.07.34,2.16,1.22.2,2.03-2.26-.1-2.16-1.22Z"/>
    <path class="cls-4" d="M216.81,185.97c.09.12.42.09.4.22l-.65,1.22c-.5-.31-.97-.61-1.35-1.06-1.51-1.77.13-2.31,1.6-.38Z"/>
    <polygon class="cls-4" points="174.51 68.64 171.28 67.7 174.51 63.53 174.51 68.64"/>
    <path d="M153.16,89.14l-3.96.2c-1.27.55-2.33,4.08-2.62,4.09-2.36-1.76-5.66,2.72-4.8,4.77.22.52,1.04.42.9,1.15-2.53-.57-4.52,1.04-5.37,3.36l-.41-.13c-.17-1.81,2.17-3.26,2.68-4.31.89-1.82.03-3.94,2.43-5.63,1.19-.84,3.1-.82,3.58-1.12.33-.21,1.29-3.33,2.99-3.86,1.18-.37,4.24.04,4.58,1.49Z"/>
    <path d="M157.92,94.91c.21.81-.64.57-1.18.51-.74-.1-2.18-.37-2.58-1.04l3.76.54Z"/>
    <path d="M118.49,99.89c-1.15,6.2,3.56,1.01,5.64.39,1.12-.33,2.02-.16.95.95-1.25,1.29-4.07,3.41-5.92,3.24-2.1-.18-3-4.03-.67-4.59Z"/>
    <path d="M98.95,150.01c.27,1.71,2.03,4.08,3.92,4.15.52.02,1.02-.3,1.58-.26,2.08.15,4.23.66,5,2.82.88,2.49-1.14,4.13-.82,6.6l1.85-.3c.23-.28-.3-2.16.56-2.39-.13.94-.7,3.19.72,3.45.37.07.97-.57,1.81-.49.77.07,1.77,1.09,2.13,1.03.27-.04.67-.59,1.18-.71,2.15-.52,2.78,1.31,3.39,1.25.46-.04,1.04-.78,1.52-.93,1.26-.37,2.85.54,3.67,1.48,1.78-1.54,3.94-1.78,5.34.28,1.77-1.44,3.47-2.51,5.38-.58,1.14-1.41,2.93-1.93,4.3-.5l.81-1.07.52.54c.98-.79,1.63-.23,2.56.27l-.27-1.34c.72-.26.44.47.7.54,1.15.29.87-.95,1.98-.82-.63-1.52.62-4,.28-5.44-.13-.55-1.84-.79-2.29-.66-.78.23.05.64.04.86,0,.25-.49.59-.44.95l-.8-.8c-.11.87-.05,1.77-.08,2.63-.01.42.03.95-.59.86-.73-.1.11-1.13.12-1.49.03-.7-.46-1.49,0-2.38l-1.03-.47v-1s.77-.31.77-.31l.14.81c3.89-2.91,8.8.75,13.02-.68,2.88-.98,5.11-4.2,7.8-5.37,2.91-1.26,5.39-.37,8.66-2.09,1.71-.89,3.15-2.4,4.4-3.51.33-.3.51-.78,1.05-.98l.37,1.22-.7.79.74.93-1.07-.27-.26,1.78c.01.74,1.03.44.79,1.04-.43,1.08-1.44-.19-1.07-1.06l-.53-.14c-.56,1.38-2.31,2.13-3.1,3.49l-.38-.03-.06-.46c-.25-.21-.67.14-.77.36-.26.57.85.18.54.94l-.76.03c.04.65-.38,1.3-.46,1.83-.04.31.32.53.31.68-.07.76-.43,1.8-.36,2.9.06.93.65,1.04,1.01.2-1.03.11-.46-.9.27-.81l.13,1.07c3.9-2.32,7.22-5.57,9.79-9.29l-.52-1.18,1.07.27-.54-.94c.5-.22.63-.33.54-.94l.8.27c.1-1.41,1.7-2.46,1.13-3.9l.22-.27c.97.31,1.12-1.99.81-2.82l.8.27.54-2.03-.53-.29v-.9s.8.27.8.27c.38-1.31-.95-1.14-1.07-2.15l1.34.27c-.68-.93.93-2.44-.25-2.43l-.02-.39c1.43-.59.81-1.88.89-2.92.02-.23.48-.51.43-.81-.09-.54-1.55-.81-.02-2.19l-.74-.84c-.06-.32.59-.7.53-1.3,0-.08-.9-.22-.55-.94l.81-.14-.28-1.21-.8.27c-.19-.87.27-.78.8-1.21l-1-1.34c.86-1.11.32-4.21-.88-4.85,1.03-1.32-.87-1.59-.27-3.35-.41-.08-.29.49-.52.68-.35.29-.81-.13-.81-.28-.03-.69,2.45-1.36,0-1.75.8-1.67-.61-3.41-2.15-3.76l.27-.68.81-.26c-1.04-.74-.86-2.32-2.42-2.02l.54-.93-1.34-.14.53-.94-1.75-1.74-.13,1.34-.81-.67v2.01s1.08-.27,1.08-.27l-.27.81-.8-.27c-.03,1.81-2.82,3.55-4.33,4.4-7.05,3.94-13.11,3.55-20.79,4.2-9.59.82-32.84,4.18-40.18-2.55-2.11-1.94-2.28-4.48-3.62-6.86-1.67,2.85-3.34,6.12-4.09,9.35-.32,1.36-.77,7.42-1.87,7.8-.35.12-.79.03-1.17.04.58-1.71.12-3.69.27-5.5.66-7.97,4.45-14.52,10.47-19.62,1.2-1.02,2.94-1.78,3.95-2.63.63-.53,1.46-2.02,2.09-2.61,4.23-4.06,17.38-7.36,23.12-6.97.86.06,1.86.54,2.67.51,3.06-.11,4.29-1.04,7.83.02,2.45.73,2.16.82,4.79,1.1,3.71.4,4.42,2.17,6.96,3.27,1.08.47,2.7.59,3.96,1.15,2.64,1.17,3.82,3.41,5.94,5.08,5.15,4.04,7.76,4.17,11.4,10.63,9.91,17.58,6.92,47.09-12.05,57.56-1.53.85-3.25,1.43-4.7,2.28-.42,2.68-1.04,5.35-1.35,8.05-.49,4.17,0,11.14-2.45,14.48-3.09,4.21-11.29,5.72-16.04,7.88-7.97,3.63-14.09,8.52-23.6,7.57-1.29-.13-2.39-.77-3.56-1-4.27-.84-7.41.55-11.44-2-8.09-5.12.28-12.03-2.75-18.78-.49-.09-1.85,1.12-2.28,1.49-7.4,6.4-16.88,20.86-28.48,16.39-4.19-1.62-7.3-5.22-8.47-9.53-.96-3.55-1.85-12.19-1.15-15.66,1.07-5.28,11.45-5.69,15.59-5.23,1.88.21,6.95,1.84,7.41,3.88l.6,11.36c3.82-2.67,7.47-5.59,11.47-8.01.66-.4,3.7-1.72,3.82-2.11-.53-1.97.44-4.55.31-6.4-.08-1.11-.71-1.63-.56-3.23.12-1.17,1.46-3.35,1.23-4.17-.11-.42-1.28-1.68-1.69-1.81-1.15-.37-2.55.07-3.68-.08-4.43-.57-6.31-5.85-5.78-9.77.13-.94.91-2.04.78-2.96-.08-.61-1.37-2.09-1.75-2.84-1-1.94-1.76-3.69-2.21-5.86-.34-1.68-.36-5.65-.95-6.85-.44-.92-1.75-1.04-2.17-2.39-.52-1.66-.19-3.42,1.6-3.96,4.77-1.44,19.88-1.36,24.38.83,1.05.51,2.46,1.92,3.14,2.23.5.23,7.62.28,8.45.13s2.92-1.87,4.18-2.27c4.78-1.5,12.57-.5,17.6-.14,3.06.22,8.44-.64,9.98,2.43,5.62.65,12.04-.61,17.51.71,4.68,1.13,8.34,5.14,5.02,9.76-.48-3.55-1.37-5.71-5.23-6.33-3-.48-8.22.29-11.44.41-2.02.08-6.11-.53-7.5.83-1.47,1.44-2.25,8.32-3.17,10.8-2.33,6.3-9.35,7.67-15.4,7.19-6.84-.54-10.75-6.15-12.47-12.25-.81-2.88-.24-8.02-4.65-7.32-2.25.36-1.35,1.94-1.57,3.55-.31,2.31-5.59,11.15-7.52,12.63-4.17,3.19-9.27,2.26-13.95.96.14,1.29-.19,2.93,0,4.17ZM141.68,84.04c-2.12-.07-5.45.31-7.24,1.49-2.06,1.35-2.63,4.22-4.57,5.64-1.27.93-2.93,1.02-4.17,2.01s-2.1,3.81-3.9,3.63c-.22-1.51,2.04-4.99,3.4-5.74.77-.43,1.73-.39,2.52-.71,1.91-.77,2.86-2.85,3.49-4.7-3.7,1.16-7.59,2.32-10.61,4.84-1.37,1.14-2.92,2.63-2.83,4.56-3.52-1.28-6.89,3.84-5.98,6.93.55,1.87,1.17,1.05,2.49,1.94l-.79.56c-.05.08.64,1.55.78,1.68.24.23.65.11.76.24.27.32-.39.94,1.11.78l.19.78h1.98s0,1.07,0,1.07l.92-.28c.82,1.67,2.77.62,4.08,1.62l.49.02.3-.56.39.02c.47,1.37,1.34.22,1.56-.76.16-.72.5-1.52.57-2.1.13-1.11-.26-2.52-.08-3.34.44-1.96,4.27-4.81,3.2-6.97-.37-.75-1.65-.47-1.48-1.34,5.45,1.04,4.67-4.1,7.12-6.72,1.5-1.6,2.99-.96,4.42-2.03.88-.65,1.15-1.77,1.9-2.53ZM162.3,86.81c-.9-1.12-5.8-1.9-7.07-1.18-.58.33-1.64,2.37-1.65.49,0-.29.33-.6.07-1.01-1.09-1.74-7.84-1.22-9.6-.17-1.48.88-2.6,3.11-3.62,3.63-.73.37-1.33.21-1.99.43-2.7.9-2.9,5.11-4.96,7.13-.37.36-1.09.43-1.34.81-.44.66-.79,2.88-1.43,3.94-.52.87-1.83,1.67-2.09,2.48-.41,1.29.6,2.61-.06,3.93l.74.52c-1.51.41-.79,1.34-1.88,2.15.32.39.73.57,1.22.65.68.11,5.36.05,6.03-.12,3.38-.87,5.12-4.13,6.32-7.12l.79,1.53c3.5-.44,3.23-2.06,4.32-4.49.89-1.99,2.93-3.21,4.97-2.01-1.78,1.13-3.38,2.05-3.49,4.43l3.49.54c-.03,2.26-3.45.96-4.92,1.4-.41.12-1.09,1.01-1.88,1.34-.91.38-1.87.5-2.85.51-.1,1.5-1.7,2.36.31,3.26.42.19.82.25,1.27.2.25-.73-.43-.46-.5-.57-.19-.29.25-.77.36-.77.33.01.32.89.46,1.01.72.65,4.07-.23,5.15.08l.57-1.09-.13,1.07c1.87-.54,4.1.19,5.84-.48,1.14-.43,4.23-2.99,4.12-4.21,0-.09-.92-.25-.55-.95l.8.54c.05-1.41.28-4.02-1.35-4.7-.58-.24-1.26-.09-1.89-.26-1.18-.31-2.89-1.53-2.94-2.84.89-.1,1.48.66,2.3.79,1.47.23,3.14-.06,4.63.23,1.98-3.43.98-6.34-2.63-7.88,1.84-.07,1.59-.24,2.28-1.74.52,1.41,1.6,2.16,2.41,3.23.37.48.35,1.17.8,1.62s2.34.78,3.28,1.29c1.28.68,2.26,1.53,2.7,2.94.21.68,1.25,5.43-.47,4.51-.68-.36-1.16-3.4-2-4.46-.46-.57-2.53-2.16-3.19-2.07-.97.13-1.31,1.66-1.73,2.53-.19.39-.75.78-.81,1.06-.08.37.42,1.07.46,1.6.23,2.61-.55,5.19-2.1,7.28l.63.62-.12.55c.51-.26,1.19.01,1.61-.13.92-.3-.76-.43-.27-.95.43-.46.77.81.95.82.49.03.98-.68,1.4-.78.53-.12.97.21,1.48.17,1.15-.1,3.18-1.23,4.5-1.29l-.27-1.07c.46.64,2.01.37,2.37-.04.83-.94-1.69-3.71-1.57-4.9.02-.19.94-.4.82-.97l.86,2.23,1.55,1.67-.54.53,1.07.67c-.25-1.11.78-.8,1.55-1.28.7-.44,2.11-1.91,1.41-2.75l.8.53c.26-.64-.4-1.16-.45-1.52-.05-.33.2-.69.17-1.02-.1-1.26-1.59-1.65-2.14-2.71l-2.15.14c-.08-1.77-1.59-2.95-2.19-4.54l-.5.24c-.09-.12.25-.56.13-.83-.08-.16-2.6-2.18-2.82-2.28-.35-.16-1.17,1.12-1.48-.12h-.53c-1.67,3.12-1.08.27-1.61-.81-.26-.52-.95-.39-1.15-.61-.12-.13-.02-.51-.13-.64ZM102.39,124.15c-2.36.25-4.75.89-5.46,3.4-1,3.49.02,11.89,2.69,14.53,3.04,3.01,11.33,2.89,13.8-.73,1.69-2.48,3.16-9.1,2.72-12.03-.84-5.57-9.48-5.63-13.74-5.18ZM139.47,125.23c-2.27.08-6.52.28-7.85,2.36-2.79,4.38-.58,14.32,4.17,16.74,2.11,1.07,5.79,1.17,8.14.93,4.69-.47,6.56-1.89,7.77-6.47,2.84-10.81-2.09-13.91-12.22-13.57ZM169.09,151.76c-.58-.17-1.89,1.34-2.01,1.34-.3,0-.22-1.09-.94-.8l.27,1.34-.53-.27c.19.89-.45,1.46-.68,2.15-.11.34.16.72.01,1.07-.27.61-1.86,1.92-2.16,2.7-.15.4.8.58,0,1.06-.52-1.2-2.43-.37-2.87.5-2.38-.75-2.38-4.22-5.74-1.84-.48,5.45-.81,10.97-2.63,16.19-1.42,4.09-4.62,8.69-9.33,8.81.17-1.06,1.27-.32,1.08-1.88l.4.53c.44-1.29,1.25-.74,1.42-.84.1-.06,1.28-1.54,1.53-1.84.18-.21.7-.54.27-.81-1.35.48-2.37,1.26-3.77,1.59-1.21.28-4.01.96-5.12,1.1-1.43.18-.99-.63-2.46.26-1.86,1.13-3.38,1.26-4.77-.53-.87,1.13-2.26,1.95-3.73,1.8-.65-.07-1.51-1.03-1.88-.97-.29.05-.74.8-1.15,1.01-2.32,1.22-3.46-1.04-3.73-1.04-.14,0-.64.79-.95.93-.61.28-1.55.18-2.22.08-1.42-.21-2.56-.25-4.08-.22-.99.02-1.74.86-2.56.01-.06,1.01.09,2.05-.03,3.06-.49,3.93-3.01,6.21,1.12,9.42,3.13,2.43,7.16,1.6,10.84,2.06,1.76.22,3.84,1.06,5.67,1.07,9.84.09,18.14-8.34,27.51-10.28l.03-.76c.67-.13.44.11.66.54.82-.53,2.54-.7,3.14-1.47.13-.17-.09-1.66.64-.14,3.85-2.71,4.07-6.04,4.36-10.42.06-.88-.26-2.48-.21-3.12.02-.2.51-.02.57-.56.11-.89-.81-.53-.56-1.48l.8.27c.03-1-.03-2.06.11-3.05s1.14-4.21.98-4.84c-.07-.27-.54-.07-.55-.31.22-.4,1.1-.17.81-1.31-.07-.27-.8.02-.54-.7h1.07s-.54-1.34-.54-1.34c.97.2.85-.44,1.08-1.21,0-.22-1.4.28-1.08-.67h1.08c-.55-1.18,1.79-1.47-.27-2.55.4-.65.76-.21,1.34-.13l.27-3.49ZM110.23,171.91c.05-1.29-.07-2.6,0-3.89.04-.71,1.09-3.11-.4-3.11-2.01,0-2.87,6.91.4,7ZM114.21,165.52c-.6-.57-1.85.21-2.23.75-.62.9-1.04,4.97-.22,5.66.42.35,1.66.78,2.1.25.46-.55.64-6.38.35-6.66ZM146.7,170.22c.74-.93.65-4.91-1.08-4.97l-.73.39.05,4.76c.19.69,1.47.18,1.76-.18ZM118.77,166.07c-.63-.6-2.36-.26-2.75.47s-.67,5.64-.25,5.94c.89.33,2.95,1.04,3.47-.03.37-.75.21-5.73-.47-6.38ZM125.02,172.98v-5.51c0-.18-.6-.89-.82-1.06-1.5-1.24-2.71-.31-3.64,1.05.49,1.25-.31,4.7.55,5.53,1.29.7,2.59.21,3.9,0ZM137.84,165.79c-1.59.47-1.07,5.86-.47,6.27s2.25,0,2.56-.68c.4-.85.53-4.77-.24-5.4-.51-.33-1.28-.35-1.85-.18ZM141.68,171.64c1.13,0,2.26-.21,2.41-1.51.04-.35-.23-3.1-.32-3.41-.1-.36-.76-1-1.15-1-1.81-.01-1.16,4.76-.94,5.92ZM135.5,172.45v-5.51c0-1.13-3.49-1.34-3.49.81v4.97c1.3.55,2.26.1,3.49-.27ZM126.63,172.98c.91.26,3.44.67,3.9-.27.24-.49.23-3.73.12-4.42-.39-2.46-4.02-2.79-4.02-.28v4.97ZM76.86,168.76c-1.93.2-7.87,1.27-6.52,4.22,1.47,3.22,11.89,2.29,14.65.96.93-.45,2.59-1.5,2.37-2.63-.54-2.78-8.34-2.76-10.5-2.54ZM147.05,172.99c-.96-.22-1.38.3-2.13.7.02,1.44.05,2.89.92,4.13,1.44-1.23.57-3.28,1.21-4.83ZM109.97,174.06c-.66-.83-4.43.85-5.29,1.29-.76.39-8.74,5.81-8.41,6.23.57.01,1.36.54,1.89.38,1.03-.31,4.98-3.99,6.36-4.9,1.76-1.15,3.81-1.8,5.46-3ZM143.83,173.79c-3.57-.6-2.32,3.14-2.15,5.37,3.47.02,1.7-3.37,2.15-5.37ZM137.38,174.6v5.64c3.67.47,3.02-3.45,2.96-5.91l-2.96.27ZM135.76,175.13c-.94.13-3.17-.41-3.63.54-.26.52-.21,3.68-.11,4.42.34,2.4,3.74.67,3.74-1.06v-3.9ZM116.15,175.4c.45,2.1-.03,4.08,1.61,5.78,2.74,1.09,2.3-4.33,1.59-5.36-.55-.81-2.3-.28-3.21-.42ZM114.74,176c-.67-.73-2.29.73-2.33,1.4-.05.9,1.9,4.64,2.67,3.91-.64-.98.19-.71.27-.98.12-.45-.32-4.03-.6-4.33ZM125.02,175.67h-3.76c.31,1.38-.21,5.2,1.08,5.77,2.86,1.29,2.8-4.14,2.68-5.77ZM130.66,175.67h-3.76v5.64c3.45.96,3.96-3.08,3.76-5.64ZM111.85,179.97l-.81-2.42-1.23.8,1.9,2.69-.4-1.07h.54ZM73.96,178.63l-3.49-.54c-.1.85,1.18.97,1.78,1.04.51.06,1.98.36,1.72-.5ZM73.69,179.97l-2.96-.27c.13,1.12,1.6.92,2.56.8.39-.05.83-.21.4-.54ZM73.69,182.39c-.58.01-1.17-.03-1.75,0-.41.02-1.06-.25-.94.4.52.69,1.38.37,2.06.17.45-.13.75.2.62-.57Z"/>
    <path d="M120.72,148.72l-.94,4.57c-1.27,6.07-6.56,3.72-5.11-1.88.69-2.67,1.91-6.53,3.13-8.97,2.48-4.99,4.2-4.31,6.19.45.89,2.14,3.52,9.34,3.46,11.34-.07,2.8-3.35,4.46-5.25,2.27-.43-.5-1.49-3.05-1.49-3.62v-4.17Z"/>
    <path d="M161.36,131.53c.18.19.95.25,1.28.34-.25.74-.79.53-1.34.27l1.07,2.02-.82.56c-.09.84,1.77,1.19.29,1.89v.74c1.21.42.02,1.03.12,1.52.02.1.85,1.56.98,1.71.33.38,1.53.89,1.59.97.45.54-1.17.62-.27.94,2.09.74,3.01-.83,4.47-.94,1.1-.08,2.89.31,4.28.27,1.12-.03,2.2-.45,3.35-.28.02.55-.5,1.4-1,1.56-.73.23-1.37-.4-1.16.85l-.29-.51c-1.43.68-3.25-.04-4.61.04s-2.32,1.14-3.55,1.28c-4.27.49-6.05-3.8-6.33-7.39-.09-1.11-.17-6.01.41-6.6,1.14-1.15,1.36.53,1.55.74Z"/>
    <path d="M161.83,117.7c-1.79-.11-2.1,3.37-2.95,3.92-.45.29-1.2-.36-1.5-.7-.47-.97,2.28-5.34,3.1-5.79,1.85-1.01.59,2.13,1.35,2.56Z"/>
    <path d="M144.63,152.83c-3.42.2-6.15,2.38-8.33,4.84-.09-2.28,2.83-5.55,4.98-5.89.9-.14,3.25-.18,3.34,1.05Z"/>
    <path d="M112.58,155.52c-.71.15-.46-.18-.67-.53-.77-1.31-2.04-4.39-3.9-2.96l.02-1.86c2.53.06,4.77,2.81,4.54,5.35Z"/>
    <path d="M121.38,163.43c.18-1.46.26-2.99.54-4.43.08-.39,0-.83.53-.94-.14,1.71.54,4.27-1.07,5.37Z"/>
    <path d="M136.51,126.83c2.63-.36,9.07-.25,11.5.73,3.17,1.28,3.32,4.69,3.08,7.66-.66,8.04-4.18,9.85-11.96,9.01-6.21-.68-7.64-7.9-6.82-13,.43-2.68,1.37-4.01,4.2-4.4Z"/>
    <path d="M102.65,125.76c2.49-.36,8.54-.26,10.73.95,1.16.64,1.52,1.93,1.66,3.17.29,2.55-1.02,9.98-3.06,11.67-2.86,2.37-9.3,2.71-11.69-.41-2.58-3.37-3.33-14.55,2.35-15.38Z"/>
    <path d="M76.59,170.1c1.92-.23,5.8-.24,7.5.68,2.98,1.61-2.85,2.66-4.07,2.75-1.12.08-7.15.06-7.15-1.48.48-1.38,2.4-1.79,3.72-1.94Z"/>
    <g>
      <path class="cls-5" d="M210.66,217.19c-29.98,28.21-73.44,35.08-110.65,16.79-58.23-28.62-74.2-104.98-31.21-154.22,24.68-28.27,63.52-39.4,99.89-30.02,75.52,19.48,98.59,114.16,41.96,167.44ZM135.79,49.21c-76.56,4.32-115.11,93.94-68.84,154.68,47.67,62.58,146.62,43.79,168.73-31.14,19.65-66.6-31.62-127.38-99.89-123.53Z"/>
      <path class="cls-5" d="M76.19,165.22l-2.16.16c-.9-.63-2.52-12.21-2.68-14-5.04-59.48,61.06-98.87,111.12-66.51,45.74,29.56,43.45,98.02-5.51,122.95-28,14.26-61.73,9.22-84.38-12.37l2.25-1.46c3.39,3.85,8.03,7.23,12.45,9.87,40.7,24.33,95.82,1.6,104.54-45.58,10.88-58.87-51.52-102.79-103.39-73.56-27.73,15.63-41.52,49.83-32.24,80.49Z"/>
      <path class="cls-5" d="M68.13,127.6l-.81,5.37c-1.16.26-1.15-1.27-2.07-1.56-1.17-.36-3.11-.19-4.37-.59l-.27,4.56c1.24-.07,3.28.6,4.4.47.55-.06,1.58-1.33,1.92-.74l-.14,6.18c-1.15.47-1.7-2.08-2.06-2.16l-10.14-.72c-.68.08-1.94,1.85-2.46,1.01-.46-.75.43-4.85.41-5.92,1.03-.23,1.31,1.02,2.08,1.28.54.18,3.44.51,3.79.29l.58-4.53c-1.14.02-2.22-.43-3.37-.28s-1.48,1.32-2.52.79l1.05-6.15c.59-.44,1.23,1.64,1.79,1.83,3.21-.03,7.12,1.38,10.18,1.41.89,0,1.18-.57,2-.55Z"/>
      <path class="cls-5" d="M223.43,100.75c.24.15,2.39,4.36,2.68,4.98.45.98,1.58,3.55,1.56,4.49-.08,2.84-2.55,4.03-5.13,3.64-.8-.12-1.47-.75-1.92-.79-1.19-.1-2.96,2.23-3.47,3.23-.45.88-.27,2.07-1.35,2.41l-1.66-4.17c.68-1.51,4.36-3.77,3.92-5.34-.04-.15-.34-.54-.52-.32-.71.63-2.12.8-2.78,1.26-.74.51-.81,1.95-1.9,2.12l-2.56-4.84c.82,0,1.62.08,2.43-.13,1.38-.35,6.82-3.04,8.23-3.87.28-.17.93-.46,1.08-.66.44-.57.4-2.69,1.4-2.04ZM223.38,106.14c-.22.03-3.73,1.66-3.84,1.84.34,3.51,6.05,2.91,5.13-.54-.17-.63-.56-1.4-1.29-1.3Z"/>
      <path class="cls-5" d="M204.65,86.75c.27.9.93,1.28,1.02,2.36.15,1.81-1.35,4.14-3.29,4.1-3.54-.08-6.67-4.62-9.42-6.46l-.14-1.07c.63-.12,1.27.41,1.87.14.37-.16,3.22-3.18,3.79-3.77.75-.77,3.96-4.15,3.98-4.83,0-.23-.63-1.82.17-1.49.48.2,4.53,3.93,5.11,4.56.7.76,2.43,2.97,2.54,3.93.36,3-3.55,4.2-5.63,2.53ZM204.81,80.33c-1.13,1.24-3.91,2.71-1.5,4.13,3.38,2,4.54-2.72,1.5-4.13ZM201.14,84.61c-.3-.21-3.4,3.17-3.46,3.41-.39,1.51,4.45,3.89,4.96.09.21-1.58-.96-2.27-1.5-3.51Z"/>
      <path class="cls-5" d="M84.01,202.87c1.09-.73,2.93,2.5,3.6,2.57.27.03,1.06-.42,1.63-.46.81-.05,1.84.38,2.35.24s1.98-1.87,2.7-2.18c1.78-.79.65,4.19.72,4.75.1.8.89,1.28.82,2.7-.3,5.59-10.1,7.32-12.3,1.82-1-2.49.25-3.2.46-5.06.15-1.28-.78-2.98.03-4.38ZM92.85,209.02c-.31-.35-2.06,1.57-2.08,2.02.96,1.5,2.53-.71,2.08-2.02ZM88.02,211.44c.18-1.19-.93-2.32-2.15-2.15-.32.3,1.32,2.54,2.15,2.15Z"/>
      <path class="cls-5" d="M206.79,204.05c.36,2.21,1.51,2.21-.12,4.99-3.09,5.26-12.89,2.53-11.64-3.85.11-.55.63-1.15.69-1.75.09-.76-.77-3.81.2-4.09s2.68,2.24,3.2,2.31c.38.05,1.31-.42,1.91-.45.73-.03,1.54.38,2.07.24.71-.19,2.2-2,3.05-2.36l.64.38c.16,1.41-.22,3.22,0,4.57ZM199.8,207.68c.8-1.76-2.93-3.33-2.01-1.34.17.36,1.75,1.64,2.01,1.34ZM202.76,207.95c.71.51,2.77-1.91,1.75-2.68-.42.48-1.66,1.06-1.89,1.62-.1.25.1,1.03.15,1.06Z"/>
      <path class="cls-5" d="M142.84,53.97c-.13,1.15-.73,1.86-.82,3.09-.2,2.66.35,7.6.55,10.48.03.42.25.79.27,1.21-.56-.04-1.2.1-1.74,0-1.52-.29-6.17-7.43-7.93-8.59.35,2.01.11,5.86,1.21,7.52.45.67,1.43.77,1.47,1.62l-5.1.54c-.15-.82.6-1.38.74-2.07.31-1.48-.47-8.28-.76-10.14-.2-1.3-1.13-1.17-1.6-2.16.11-.53,3.39-.71,4.04-.8l7.24,8.18c-.57-1.88-.19-4.43-.59-6.26-.23-1.03-1.44-1.33-1.55-2.34l4.57-.27Z"/>
      <path class="cls-5" d="M137.76,220.88c1.49-.74,2.36,1.76,3.67,2.07.52.12,1.39-.22,2.07-.24.61-.02,1.57.23,1.9.18.57-.09,2.78-2.78,3.35-2.46.79.45.03,3.56.14,4.49.25,2.15,1.91,2.55.08,5.42-2.56,4.03-9.46,3.64-11.3-.71-1.03-2.44.15-2.64.32-4.38.08-.87-.67-3.67-.24-4.38ZM142.03,228.91c.31-1.42-.64-1.9-1.88-2.15-.14,1.25.57,2.22,1.88,2.15ZM147.14,227.03c-.64-.27-2.64.51-2.29,1.35,1.17,1.72,1.96-.04,2.29-1.35Z"/>
      <path class="cls-5" d="M117.04,214.67c.12.08.45,2.38.45,2.78,0,.5-.39,1.05-.36,1.61.1,1.86,1.77,2.15.5,4.92-2.56,5.6-11.97,3.79-12.15-1.67-.04-1.13.66-1.97.76-2.74.15-1.14-.75-3.3.04-4.52.8-.58,2.34,1.52,2.99,1.87,1.16.63,1.8,0,2.83-.1.5-.04.98.35,1.53.21.69-.18,2.83-2.78,3.42-2.38ZM108.52,222.65c1.82,2.17,3.25-.84.05-1.8-.63.41-.45,1.32-.05,1.8ZM115.43,221.12c-.98-.27-2.21.52-2.35,1.52-.29,2.06,2.78.04,2.35-1.52Z"/>
      <path class="cls-5" d="M172.67,214.4c1.35-.4,2.74,2.39,3.57,2.37.37,0,.91-.44,1.43-.48.85-.06,1.64.5,2.6.21.64-.2,2.62-3.17,3.29-2.1.39.63,0,3.44.12,4.45.21,1.75,1.07,2.32.21,4.49-.66,1.67-3.98,3.61-5.7,3.65-2.76.07-5.87-2.36-6.06-5.18-.11-1.58.5-2.16.57-3.24.08-1.2-.52-2.83-.02-4.16ZM174.82,220.31c-.1,1.12,2.36,3.25,2.16,1.22-.09-.88-1.37-1.21-2.16-1.22ZM181.8,220.58c-1.1-.61-1.94.54-2.42,1.47.74,1.28,2.73-1.05,2.42-1.47Z"/>
      <path class="cls-5" d="M223.18,179.2c-.17.98.25,1.89.29,2.82.03.55-.31,1.09-.28,1.6.04.77.83,1.52.8,2.69-.13,6.56-11.85,7.39-12.38.28-.12-1.59.75-2.05.8-2.97.04-.65-.6-4.08-.26-4.42,1.84-.26,2.43,1.78,3.88,2.4,1.06-.68,3.01.1,3.75-.04.65-.12,2.14-2.67,3.39-2.35ZM216.32,186.35c-1.48-1.93-3.11-1.39-1.6.38.39.45.86.75,1.35,1.06l.65-1.22c.01-.14-.31-.1-.4-.22ZM221.3,185.11c-.36-.38-3.66,1.65-1.87,2.57.96.48,2.23-1.66,1.87-2.57Z"/>
      <path class="cls-5" d="M91.24,88.1l-4.17,4.56c-.62.26-.61-1.54-1.22-2-.36-.27-3.35-.81-3.48-.68.53,1.96.61,4.65,3.22,4.43l-3.36,3.9-2.34-8.54c-.23-.23-4.51-.86-5.17-.88-1.62-.06-2.65.47-4.18.55.75-1.81,3-2.62,3.52-4.54l.64-.03c.88,1.47,3.44,1.05,4.98,1.62-.53-1.69-.51-4.15-2.68-4.43l3.63-3.9c.66,1.23.06,2.49.17,3.86.05.69.77,4.2,1.15,4.49l9.3,1.59Z"/>
      <path class="cls-5" d="M218.35,94.01c.4-.1.44.09.68.26.59.43,2.91,4.09,2.54,4.58-.7-.39-1.02-.69-1.86-.4-2.48.86-5.36,4.02-7.63,5.02-3.02,1.32-6.04-.99-7.03-3.82-1.05-3.01.02-4.27,2.15-6.17,1.29-1.14,5.02-3.36,5.79-4.42.54-.74-.11-1.69.65-2.3l4.16,5.23c-.81.86-1.46-.42-2.67,0-.35.12-5.29,3.8-5.91,4.32-1.13.94-2.29,1.89-1.59,3.42.77,1.69,2.35,2.17,4.01,1.41.68-.31,5.6-4.14,6.04-4.7.57-.73.71-1.52.66-2.43Z"/>
      <path class="cls-5" d="M125.9,55.58l1.08,4.3c-.26.28-2.24-1.54-2.84-1.61-.31-.04-3.2.44-3.31.57l.51,4.27c1.59.12,2.61-1.11,3.63-2.15l1.21,4.29c-.21.21-3.51-1.2-4.18-.27l.96,4.57c2.86-.38,3.97-1.99,5.64-4.03l.51,4.54-10.45,2.71c-.31-.91.59-1.5.75-2.08.49-1.86-2.15-8.25-2.16-10.61-.07-.89-2.25-.91-2.08-1.67.12-.54,9.47-2.41,10.74-2.83Z"/>
      <path class="cls-5" d="M230.43,116.86l2.59,10.75-3.65.8c.64-2.24,1.15-4.08.53-6.45l-4.45,1.06c-.49,1.11,2.15,2.85,2.03,3.37l-3.64,1.17c-1.1-1.2,1.38-2.72-.25-4.21-.72.44-3.71.57-3.81,1.42.28.84.32,1.89.75,2.66.7,1.28,2.66,1.62,2.65,3.13l-4.03.54-2.96-11.02c1.98.7,2.28.85,4.35.46,2.67-.5,5.52-1.43,8.2-1.99l.91-1.66.76-.02Z"/>
      <path class="cls-5" d="M67.06,98.57l4.03,2.15c.79-1.38.34-2.33.39-3.77.6-.88,3.01,1.11,3.64,1.49-.94.9-2.34,1.53-2.67,2.93l3.36,2.05c.47.06.33-.18.47-.34,1.57-1.78,2.02-3.4.99-5.58.26-.24,3.79,1.54,3.72,2.24-.8,1.03-5.46,8.92-6,8.98-.11.01-.44-.23-.66-.23-.11-.72.2-1.38-.3-1.98-.3-.36-4.92-2.98-5.73-3.41-.72-.38-2.4-1.43-3.07-1.51-.93-.12-1.98,1.09-2.75.08l5.66-9.53,3.73,2c-2.39.9-4.08,1.83-4.83,4.43Z"/>
      <path class="cls-5" d="M234.74,147.49l-.54,6.45c-.67-.25-1.17-1.36-1.8-1.55-1.13-.35-7.28-.82-8.55-.73-1.52.11-1.96,1.02-2.01,2.43-.09,2.31,1.71,2.74,3.66,3.05,1.24.2,5.04.5,6.15.29.83-.16,1.3-1.43,2.29-1.34l-.81,5.37c-.96-.36-1.36-1.18-2.35-1.54-2.69-.98-7.98,0-10.01-2.16-2.67-2.82-1.28-9.85,3.1-9.76,2.4.05,6.07,1.04,8.33.85,1.05-.09,1.52-1.28,2.55-1.37Z"/>
      <path class="cls-5" d="M61.68,112.28c.15.62-.12.44-.34.61-.59.46-1.48.64-1.93,1.28-.2.29-1.25,3.15-1.21,3.32l4.28,1.5c.3-1.62.03-2.73-.27-4.3l3.6,1.05.18.68c-1.34.58-2.1,1.6-2.16,3.1l4.55,1.07c1.31-2.49.48-3.02-.07-5.15-.69-2.7,2.65.07,3.84.06l-3.49,10.2c-1.21.27-1.02-1.09-1.77-1.59-.36-.24-2.72-.95-3.39-1.18-1-.33-6.09-1.86-6.66-1.7-.42.12-1.17.93-1.48.91l-.53-.47,3.36-10.49,3.49,1.08Z"/>
      <path class="cls-5" d="M172.67,74.66c-.37-.51,1.94-1.45,1.31-3.32-.19-.56-3.8-1.34-4.61-1.53-1.04.99-.69,2.01-.46,3.24-1.33-.55-2.86-.8-4.19-1.32-.27-.11-.47.14-.38-.43.14-.93,1.12-.89,1.6-1.36.97-.93,7.63-8.77,7.69-9.38.05-.42-.56-1.32.25-1.22.52.06,3.22,1.17,3.33,1.51l.3,13.41.55,1.87c-.4.51-.31.33-.72.19-1.49-.53-2.99-1.44-4.66-1.67ZM174.01,69.02v-5.11l-3.23,4.16,3.23.94Z"/>
      <path class="cls-5" d="M234.44,139.93l-10.24,4.13-3.97,2.62-.27-6.45c1.39.18,1.98,2.16,3.5.68.42-.4.43-4.26,0-4.58-.19-.14-1.45-.41-1.74-.39-.94.06-1.18,1.01-2.03,1.06l-.27-5.1c1.24.31,2.14,1.13,3.35,1.62,1.94.78,6.97,2.36,8.94,2.63,1,.14,1.8-.57,2.21-.37.95.48.44,3.17.51,4.15ZM230.17,137.81l-4.57-1.08.27,3.22c.15.15,3.51-1.31,3.95-1.55.31-.17.45.02.34-.6Z"/>
      <path class="cls-5" d="M100.64,68.75c-2.11-1.08-6.27-.86-5.24,2.42,1.02,1.72,9.18-1.66,10.02,3.69.68,4.38-3.86,6.28-7.29,7.28l-2.32-3.45c.28-.25,2.78.5,3.39.51,1.54,0,4.28-1.27,3.4-3.13-1.21-2.56-7.89,1.11-10.07-3.1-2.32-4.5,3.3-6.7,6.6-7.69.48.14,1.76,3.16,1.52,3.47Z"/>
      <path class="cls-5" d="M145.26,53.97l12.78,1.33-.16,4.85c-.54.61-1.9-2.66-2.27-2.96-.5-.42-1.38-.54-2.02-.53l-1.1,10.62,1.1,2.28-6.18-.54,1.6-2.29.82-10.07c-.7.05-1.48-.16-2.15.14-.92.41-1.25,2.21-2.42,2.01v-4.84Z"/>
      <path class="cls-5" d="M114.35,63.64c-1.99-.3-2.17-2.3-4.57-1.34,1.37,2.63,2.12,7.3,3.65,9.65.59.91,1.97,1.12,1.99,1.23.09.53-.03.64-.46.89-.27.16-5,2.13-5.19,1.93-.13-.68.46-1.16.53-1.77.28-2.27-3.38-7.5-3.78-10.03-2.38-.38-1.92,2.45-3.07,3.73l-1.73-4.13,11.14-4.98,1.47,4.82Z"/>
      <path class="cls-5" d="M66.79,150.17c-1.19.03-.79-.9-2.28-1.08-3.28-.39-6.76.23-10.08,0,.33.81.15,1.88.44,2.62.2.51,1.18.55,1.17,1.27-.15.73-3.12.29-3.76.41l-.27-11.83c.61.09,4.04-.28,4.03.4-1.14,1.15-2.27,1.76-1.88,3.63l10.61-.28,2.02-1.34v6.18Z"/>
      <path class="cls-5" d="M190.94,67.94l-2.29.27-5.24,9.28c-.09.52.08.34.34.46,2.98,1.36,3.32.4,5.83-.21.47-.11.48-.14.81.28l-2.68,4.17c-1.12-.7-9.18-4.75-9.39-5.25-.05-.12-.11-.67.13-.67.42,0,.88.07,1.29-.05.61-.18,3.82-6.15,4.36-7.2.99-1.95,1.85-2.86.94-5.11l5.64,3.09.27.94Z"/>
      <path class="cls-5" d="M167.02,56.93l-.17.83c-.67.23-1.44.45-1.78,1.12-.42.81-2.7,9.95-2.57,10.47.14.6,1.99,2.06.28,1.91-.63-.05-4.85-.85-5.17-1.03-.85-.48,1.18-1.22,1.49-2.02.63-1.65,1.64-6.4,1.94-8.27.08-.48.35-1.98.29-2.28-.16-.8-2.18-2-.54-1.9,2.11.14,4.12,1.04,6.24,1.16Z"/>
      <path class="cls-5" d="M88.15,71.71l.59.66c-.46.81-.77,1.84-.2,2.7,1.87,1.6,4.67,6.59,6.57,7.67.75.42,1.47,0,2.03.66l-4.7,3.89c-.79-.65.07-1.46-.19-2.48-.09-.37-.62-.95-.88-1.28-.86-1.08-5.35-6.26-6.17-6.73s-1.65.07-2.29-.66l5.23-4.43Z"/>
    </g>
    <path class="cls-4" d="M135.9,49.27c68.26-3.85,119.53,56.94,99.89,123.53-22.11,74.94-121.06,93.73-168.73,31.14-46.27-60.74-7.72-150.36,68.84-154.68ZM142.94,54.03l-4.57.27c.12,1.01,1.33,1.31,1.55,2.34.4,1.83.02,4.37.59,6.26l-7.24-8.18c-.65.09-3.93.27-4.04.8.46.99,1.4.86,1.6,2.16.29,1.85,1.07,8.66.76,10.14-.15.7-.89,1.26-.74,2.07l5.1-.54c-.03-.85-1.02-.95-1.47-1.62-1.11-1.66-.86-5.5-1.21-7.52,1.76,1.16,6.41,8.3,7.93,8.59.54.1,1.18-.04,1.74,0-.02-.42-.24-.79-.27-1.21-.2-2.88-.75-7.82-.55-10.48.09-1.23.7-1.94.82-3.09ZM145.36,54.03v4.84c1.17.2,1.5-1.6,2.42-2.01.67-.3,1.45-.09,2.15-.14l-.82,10.07-1.6,2.29,6.18.54-1.1-2.28,1.1-10.62c.64-.01,1.52.11,2.02.53.37.31,1.73,3.57,2.27,2.96l.16-4.85-12.78-1.33ZM126.01,55.64c-1.27.41-10.63,2.28-10.74,2.83-.17.77,2.01.79,2.08,1.67.01,2.36,2.65,8.75,2.16,10.61-.15.58-1.06,1.17-.75,2.08l10.45-2.71-.51-4.54c-1.66,2.04-2.77,3.65-5.64,4.03l-.96-4.57c.67-.92,3.97.48,4.18.27l-1.21-4.29c-1.01,1.04-2.03,2.26-3.63,2.15l-.51-4.27c.11-.13,3-.61,3.31-.57.61.08,2.58,1.9,2.84,1.61l-1.08-4.3ZM167.13,56.99c-2.11-.13-4.13-1.03-6.24-1.16-1.64-.11.38,1.1.54,1.9.06.31-.21,1.81-.29,2.28-.3,1.87-1.31,6.62-1.94,8.27-.3.8-2.33,1.54-1.49,2.02.32.18,4.54.98,5.17,1.03,1.71.15-.13-1.32-.28-1.91-.13-.53,2.16-9.66,2.57-10.47.34-.67,1.11-.89,1.78-1.12l.17-.83ZM114.46,63.7l-1.47-4.82-11.14,4.98,1.73,4.13c1.15-1.29.69-4.11,3.07-3.73.41,2.53,4.07,7.76,3.78,10.03-.08.61-.66,1.09-.53,1.77.19.2,4.92-1.77,5.19-1.93.42-.25.55-.36.46-.89-.02-.12-1.4-.32-1.99-1.23-1.53-2.35-2.28-7.02-3.65-9.65,2.39-.96,2.58,1.04,4.57,1.34ZM172.77,74.72c1.67.23,3.17,1.14,4.66,1.67.41.14.32.32.72-.19l-.55-1.87-.3-13.41c-.12-.34-2.81-1.45-3.33-1.51-.8-.1-.2.8-.25,1.22-.07.6-6.72,8.44-7.69,9.38-.48.46-1.46.43-1.6,1.36-.09.58.11.33.38.43,1.33.51,2.86.76,4.19,1.32-.24-1.23-.58-2.25.46-3.24.81.2,4.42.98,4.61,1.53.64,1.87-1.67,2.81-1.31,3.32ZM191.04,68l-.27-.94-5.64-3.09c.92,2.25.06,3.16-.94,5.11-.53,1.05-3.75,7.02-4.36,7.2-.4.12-.87.05-1.29.05-.24,0-.18.55-.13.67.21.5,8.27,4.55,9.39,5.25l2.68-4.17c-.33-.42-.33-.4-.81-.28-2.51.61-2.85,1.58-5.83.21-.27-.12-.44.06-.34-.46l5.24-9.28,2.29-.27ZM100.75,68.81c.24-.32-1.03-3.33-1.52-3.47-3.3.99-8.92,3.19-6.6,7.69,2.17,4.21,8.86.55,10.07,3.1.88,1.86-1.86,3.14-3.4,3.13-.61,0-3.1-.76-3.39-.51l2.32,3.45c3.43-1,7.97-2.91,7.29-7.28-.83-5.35-9-1.97-10.02-3.69-1.03-3.28,3.13-3.51,5.24-2.42ZM88.26,71.77l-5.23,4.43c.64.72,1.44.17,2.29.66s5.31,5.65,6.17,6.73c.26.33.79.92.88,1.28.26,1.01-.6,1.82.19,2.48l4.7-3.89c-.56-.65-1.28-.23-2.03-.66-1.9-1.08-4.71-6.07-6.57-7.67-.57-.86-.26-1.89.2-2.7l-.59-.66ZM76.3,165.28c-9.28-30.66,4.51-64.86,32.24-80.49,51.87-29.24,114.26,14.69,103.39,73.56-8.72,47.17-63.84,69.91-104.54,45.58-4.42-2.64-9.05-6.02-12.45-9.87l-2.25,1.46c22.65,21.59,56.38,26.63,84.38,12.37,48.96-24.93,51.24-93.39,5.51-122.95-50.06-32.36-116.16,7.04-111.12,66.51.15,1.79,1.78,13.37,2.68,14l2.16-.16ZM204.75,86.82c2.09,1.68,5.99.48,5.63-2.53-.11-.96-1.84-3.17-2.54-3.93-.59-.63-4.64-4.36-5.11-4.56-.79-.33-.16,1.26-.17,1.49-.02.68-3.23,4.06-3.98,4.83-.57.58-3.42,3.6-3.79,3.77-.6.27-1.23-.27-1.87-.14l.14,1.07c2.74,1.85,5.88,6.38,9.42,6.46,1.94.05,3.43-2.29,3.29-4.1-.09-1.08-.75-1.46-1.02-2.36ZM91.35,88.16l-9.3-1.59c-.38-.29-1.09-3.8-1.15-4.49-.11-1.37.5-2.63-.17-3.86l-3.63,3.9c2.17.28,2.15,2.74,2.68,4.43-1.54-.57-4.1-.15-4.98-1.62l-.64.03c-.52,1.92-2.77,2.73-3.52,4.54,1.53-.07,2.55-.6,4.18-.55.66.02,4.94.64,5.17.88l2.34,8.54,3.36-3.9c-2.61.22-2.69-2.47-3.22-4.43.13-.12,3.12.41,3.48.68.6.46.6,2.26,1.22,2l4.17-4.56ZM99.14,150.37c-.19-1.24.14-2.87,0-4.17,4.68,1.3,9.78,2.23,13.95-.96,1.93-1.48,7.21-10.32,7.52-12.63.22-1.6-.68-3.19,1.57-3.55,4.41-.71,3.84,4.43,4.65,7.32,1.72,6.11,5.63,11.71,12.47,12.25,6.05.48,13.07-.9,15.4-7.19.92-2.48,1.7-9.36,3.17-10.8,1.39-1.36,5.48-.75,7.5-.83,3.21-.13,8.44-.89,11.44-.41,3.86.61,4.74,2.77,5.23,6.33,3.33-4.62-.33-8.63-5.02-9.76-5.47-1.32-11.9-.06-17.51-.71-1.54-3.08-6.92-2.21-9.98-2.43-5.03-.36-12.82-1.36-17.6.14-1.26.39-3.32,2.11-4.18,2.27s-7.95.1-8.45-.13c-.68-.31-2.09-1.72-3.14-2.23-4.5-2.19-19.61-2.26-24.38-.83-1.79.54-2.11,2.3-1.6,3.96.42,1.36,1.73,1.48,2.17,2.39.58,1.2.6,5.17.95,6.85.44,2.16,1.21,3.91,2.21,5.86.38.75,1.67,2.23,1.75,2.84.12.92-.66,2.02-.78,2.96-.53,3.92,1.35,9.2,5.78,9.77,1.13.14,2.53-.29,3.68.08.41.13,1.58,1.39,1.69,1.81.23.82-1.12,3-1.23,4.17-.16,1.6.48,2.12.56,3.23.13,1.85-.84,4.43-.31,6.4-.12.39-3.16,1.72-3.82,2.11-4,2.42-7.65,5.34-11.47,8.01l-.6-11.36c-.46-2.04-5.53-3.67-7.41-3.88-4.13-.47-14.51-.05-15.59,5.23-.7,3.47.18,12.11,1.15,15.66,1.17,4.32,4.28,7.92,8.47,9.53,11.6,4.47,21.08-9.99,28.48-16.39.42-.37,1.79-1.57,2.28-1.49,3.03,6.75-5.35,13.65,2.75,18.78,4.03,2.55,7.17,1.16,11.44,2,1.17.23,2.27.88,3.56,1,9.51.95,15.63-3.94,23.6-7.57,4.75-2.16,12.95-3.67,16.04-7.88,2.44-3.34,1.96-10.31,2.45-14.48.32-2.7.94-5.37,1.35-8.05,1.45-.85,3.17-1.44,4.7-2.28,18.97-10.47,21.96-39.98,12.05-57.56-3.64-6.46-6.26-6.59-11.4-10.63-2.12-1.67-3.3-3.91-5.94-5.08-1.25-.56-2.87-.68-3.96-1.15-2.54-1.1-3.25-2.87-6.96-3.27-2.63-.28-2.34-.37-4.79-1.1-3.53-1.06-4.77-.12-7.83-.02-.81.03-1.81-.45-2.67-.51-5.73-.39-18.88,2.91-23.12,6.97-.62.6-1.46,2.08-2.09,2.61-1.01.86-2.75,1.62-3.95,2.63-6.02,5.1-9.82,11.66-10.47,19.62-.15,1.81.31,3.79-.27,5.5.37-.02.82.08,1.17-.04,1.1-.39,1.56-6.44,1.87-7.8.75-3.23,2.41-6.5,4.09-9.35,1.34,2.38,1.51,4.92,3.62,6.86,7.34,6.73,30.6,3.37,40.18,2.55,7.68-.65,13.74-.26,20.79-4.2,1.52-.85,4.31-2.59,4.33-4.4l.8.27.27-.81-1.07.27v-2.01s.8.67.8.67l.13-1.34,1.75,1.74-.53.94,1.34.14-.54.93c1.55-.3,1.38,1.28,2.42,2.02l-.81.26-.27.68c1.54.35,2.95,2.09,2.15,3.76,2.46.39-.02,1.06,0,1.75,0,.15.46.57.81.28.23-.19.11-.76.52-.68-.6,1.76,1.3,2.03.27,3.35,1.2.64,1.73,3.74.88,4.85l1,1.34c-.53.43-.99.34-.8,1.21l.8-.27.28,1.21-.81.14c-.35.73.54.86.55.94.06.61-.59.98-.53,1.3l.74.84c-1.53,1.38-.07,1.65.02,2.19.05.3-.42.58-.43.81-.08,1.04.54,2.33-.89,2.92l.02.39c1.18-.01-.43,1.5.25,2.43l-1.34-.27c.12,1.01,1.45.84,1.07,2.15l-.8-.27v.9s.53.29.53.29l-.54,2.03-.8-.27c.31.83.16,3.13-.81,2.82l-.22.27c.58,1.44-1.02,2.5-1.13,3.9l-.8-.27c.1.61-.03.72-.54.94l.54.94-1.07-.27.52,1.18c-2.57,3.72-5.89,6.97-9.79,9.29l-.13-1.07c-.73-.09-1.29.92-.27.81-.36.84-.94.72-1.01-.2-.07-1.09.29-2.14.36-2.9.01-.15-.35-.37-.31-.68.08-.53.5-1.18.46-1.83l.76-.03c.32-.76-.79-.36-.54-.94.1-.22.52-.56.77-.36l.06.46.38.03c.79-1.36,2.54-2.11,3.1-3.49l.53.14c-.37.87.64,2.15,1.07,1.06.24-.6-.78-.31-.79-1.04l.26-1.78,1.07.27-.74-.93.7-.79-.37-1.22c-.54.2-.71.68-1.05.98-1.25,1.11-2.69,2.62-4.4,3.51-3.28,1.71-5.75.83-8.66,2.09-2.69,1.16-4.92,4.39-7.8,5.37-4.22,1.44-9.13-2.22-13.02.68l-.14-.81-.78.31v1s1.04.47,1.04.47c-.45.89.04,1.68,0,2.38-.02.36-.85,1.39-.12,1.49.62.09.58-.44.59-.86.03-.86-.04-1.76.08-2.63l.8.8c-.04-.35.44-.7.44-.95,0-.22-.82-.64-.04-.86.45-.13,2.16.11,2.29.66.35,1.45-.91,3.92-.28,5.44-1.11-.13-.83,1.11-1.98.82-.27-.07.02-.8-.7-.54l.27,1.34c-.93-.5-1.58-1.06-2.56-.27l-.52-.54-.81,1.07c-1.36-1.43-3.15-.92-4.3.5-1.91-1.93-3.61-.86-5.38.58-1.4-2.06-3.56-1.82-5.34-.28-.82-.95-2.41-1.86-3.67-1.48-.48.14-1.06.88-1.52.93-.61.06-1.24-1.77-3.39-1.25-.51.12-.91.67-1.18.71-.36.06-1.36-.96-2.13-1.03-.84-.08-1.45.56-1.81.49-1.42-.26-.84-2.51-.72-3.45-.86.23-.33,2.11-.56,2.39l-1.85.3c-.33-2.46,1.7-4.11.82-6.6-.77-2.16-2.92-2.67-5-2.82-.56-.04-1.05.28-1.58.26-1.88-.06-3.65-2.44-3.92-4.15ZM218.46,94.07c.05.91-.09,1.7-.66,2.43-.44.57-5.36,4.39-6.04,4.7-1.66.76-3.24.28-4.01-1.41-.69-1.53.47-2.48,1.59-3.42.62-.52,5.56-4.2,5.91-4.32,1.2-.42,1.85.86,2.67,0l-4.16-5.23c-.77.61-.11,1.56-.65,2.3-.77,1.06-4.5,3.28-5.79,4.42-2.14,1.9-3.2,3.16-2.15,6.17.99,2.82,4.01,5.14,7.03,3.82,2.27-.99,5.15-4.16,7.63-5.02.84-.29,1.16.01,1.86.4.37-.48-1.96-4.15-2.54-4.58-.23-.17-.28-.36-.68-.26ZM67.16,98.64c.75-2.6,2.44-3.53,4.83-4.43l-3.73-2-5.66,9.53c.77,1,1.82-.2,2.75-.08.66.08,2.35,1.13,3.07,1.51.81.43,5.43,3.04,5.73,3.41.5.61.18,1.27.3,1.98.21,0,.54.24.66.23.54-.06,5.2-7.96,6-8.98.07-.7-3.46-2.48-3.72-2.24,1.03,2.18.58,3.81-.99,5.58-.14.16,0,.39-.47.34l-3.36-2.05c.32-1.4,1.73-2.03,2.67-2.93-.63-.37-3.04-2.36-3.64-1.49-.05,1.44.4,2.39-.39,3.77l-4.03-2.15ZM223.53,100.81c-1-.65-.96,1.47-1.4,2.04-.15.2-.8.49-1.08.66-1.41.82-6.85,3.51-8.23,3.87-.81.21-1.61.12-2.43.13l2.56,4.84c1.1-.17,1.17-1.61,1.9-2.12.66-.46,2.07-.63,2.78-1.26.19-.22.48.17.52.32.44,1.57-3.23,3.83-3.92,5.34l1.66,4.17c1.08-.35.9-1.53,1.35-2.41.51-1,2.28-3.33,3.47-3.23.45.04,1.13.67,1.92.79,2.58.39,5.05-.8,5.13-3.64.03-.94-1.11-3.51-1.56-4.49-.28-.62-2.44-4.83-2.68-4.98ZM61.79,112.35l-3.49-1.08-3.36,10.49.53.47c.31.03,1.06-.79,1.48-.91.57-.16,5.66,1.36,6.66,1.7.67.22,3.03.94,3.39,1.18.75.5.56,1.86,1.77,1.59l3.49-10.2c-1.19,0-4.53-2.77-3.84-.06.55,2.13,1.38,2.66.07,5.15l-4.55-1.07c.06-1.5.82-2.52,2.16-3.1l-.18-.68-3.6-1.05c.29,1.57.57,2.68.27,4.3l-4.28-1.5c-.04-.18,1.01-3.04,1.21-3.32.45-.65,1.34-.82,1.93-1.28.22-.17.49,0,.34-.61ZM162.02,119.06c-.76-.43.5-3.58-1.35-2.56-.82.45-3.57,4.82-3.1,5.79.3.33,1.04.99,1.5.7.85-.55,1.16-4.03,2.95-3.92ZM230.53,116.92l-.76.02-.91,1.66c-2.69.56-5.53,1.49-8.2,1.99-2.07.39-2.37.25-4.35-.46l2.96,11.02,4.03-.54c.01-1.51-1.96-1.85-2.65-3.13-.42-.77-.46-1.82-.75-2.66.1-.85,3.1-.99,3.81-1.42,1.63,1.49-.85,3,.25,4.21l3.64-1.17c.12-.52-2.52-2.26-2.03-3.37l4.45-1.06c.62,2.37.11,4.21-.53,6.45l3.65-.8-2.59-10.75ZM68.24,127.66c-.81-.02-1.1.56-2,.55-3.07-.03-6.97-1.43-10.18-1.41-.56-.19-1.2-2.28-1.79-1.83l-1.05,6.15c1.04.53,1.35-.64,2.52-.79s2.24.3,3.37.28l-.58,4.53c-.35.22-3.26-.11-3.79-.29-.77-.26-1.05-1.51-2.08-1.28.02,1.08-.87,5.17-.41,5.92.52.84,1.77-.93,2.46-1.01l10.14.72c.36.08.91,2.63,2.06,2.16l.14-6.18c-.33-.59-1.37.67-1.92.74-1.12.13-3.16-.54-4.4-.47l.27-4.56c1.27.4,3.21.23,4.37.59.92.29.91,1.82,2.07,1.56l.81-5.37ZM161.55,131.89c-.2-.21-.41-1.89-1.55-.74-.58.58-.49,5.49-.41,6.6.28,3.58,2.06,7.87,6.33,7.39,1.24-.14,2.26-1.21,3.55-1.28,1.36-.08,3.18.64,4.61-.04l.29.51c-.21-1.25.43-.63,1.16-.85.5-.16,1.02-1.01,1-1.56-1.14-.17-2.22.25-3.35.28-1.39.04-3.18-.35-4.28-.27-1.46.1-2.38,1.68-4.47.94-.9-.32.72-.4.27-.94-.06-.07-1.26-.59-1.59-.97-.13-.15-.96-1.61-.98-1.71-.1-.49,1.09-1.1-.12-1.52v-.74c1.48-.7-.38-1.05-.29-1.89l.82-.56-1.07-2.02c.55.26,1.09.47,1.34-.27-.32-.1-1.09-.15-1.28-.34ZM234.55,139.99c-.07-.98.44-3.68-.51-4.15-.41-.21-1.21.51-2.21.37-1.97-.27-7-1.85-8.94-2.63-1.22-.49-2.11-1.31-3.35-1.62l.27,5.1c.84-.05,1.09-1,2.03-1.06.29-.02,1.55.24,1.74.39.43.32.42,4.18,0,4.58-1.52,1.48-2.11-.5-3.5-.68l.27,6.45,3.97-2.62,10.24-4.13ZM120.91,148.08v4.17c0,.57,1.05,3.11,1.49,3.62,1.89,2.19,5.17.53,5.25-2.27.05-1.99-2.57-9.2-3.46-11.34-1.99-4.76-3.71-5.44-6.19-.45-1.22,2.44-2.43,6.3-3.13,8.97-1.45,5.6,3.84,7.95,5.11,1.88l.94-4.57ZM66.89,150.23v-6.18l-2.02,1.34-10.61.28c-.4-1.87.74-2.48,1.88-3.63.01-.69-3.41-.32-4.03-.4l.27,11.83c.64-.11,3.61.32,3.76-.41.02-.72-.96-.76-1.17-1.27-.3-.74-.12-1.82-.44-2.62,3.32.22,6.8-.4,10.08,0,1.49.18,1.08,1.11,2.28,1.08ZM234.85,147.55c-1.03.09-1.49,1.28-2.55,1.37-2.26.19-5.93-.8-8.33-.85-4.37-.09-5.76,6.94-3.1,9.76,2.03,2.15,7.32,1.17,10.01,2.16.99.36,1.39,1.18,2.35,1.54l.81-5.37c-.99-.09-1.46,1.18-2.29,1.34-1.11.21-4.9-.09-6.15-.29-1.96-.31-3.75-.74-3.66-3.05.05-1.41.5-2.32,2.01-2.43,1.27-.09,7.42.38,8.55.73.63.2,1.13,1.3,1.8,1.55l.54-6.45ZM111.77,155.88c.23-2.54-2.01-5.29-4.54-5.35l-.02,1.86c1.86-1.43,3.13,1.65,3.9,2.96.2.35-.05.68.67.53ZM144.82,153.19c-.09-1.24-2.44-1.2-3.34-1.05-2.15.34-5.07,3.61-4.98,5.89,2.18-2.45,4.91-4.64,8.33-4.84ZM119.57,161.79c1.61-1.11.93-3.66,1.07-5.37-.54.11-.46.55-.53.94-.28,1.44-.36,2.97-.54,4.43ZM138.91,160.98l-.27-1.07-.51,2.79c.23.05,1.03,1.31,1.32.97.15-.17-.9-1.85-.53-2.42l.8.27v-.81s-.8.27-.8.27ZM223.29,179.26c-1.25-.31-2.74,2.23-3.39,2.35-.75.14-2.69-.64-3.75.04-1.45-.62-2.03-2.66-3.88-2.4-.34.34.3,3.77.26,4.42-.06.91-.92,1.38-.8,2.97.53,7.11,12.25,6.28,12.38-.28.02-1.16-.76-1.92-.8-2.69-.03-.51.31-1.05.28-1.6-.05-.93-.47-1.84-.29-2.82ZM206.9,204.11c-.22-1.34.16-3.16,0-4.57l-.64-.38c-.85.35-2.34,2.17-3.05,2.36-.53.14-1.35-.27-2.07-.24-.6.02-1.53.5-1.91.45-.52-.07-2.2-2.61-3.2-2.31s-.11,3.33-.2,4.09c-.07.6-.59,1.2-.69,1.75-1.25,6.38,8.55,9.11,11.64,3.85,1.63-2.78.48-2.77.12-4.99ZM84.12,202.93c-.8,1.41.12,3.11-.03,4.38-.21,1.86-1.46,2.57-.46,5.06,2.2,5.5,12,3.77,12.3-1.82.08-1.42-.72-1.9-.82-2.7-.07-.56,1.06-5.54-.72-4.75-.71.31-2.17,2.04-2.7,2.18s-1.54-.29-2.35-.24c-.57.04-1.36.49-1.63.46-.67-.07-2.51-3.31-3.6-2.57ZM172.77,214.46c-.5,1.33.1,2.96.02,4.16-.07,1.08-.68,1.66-.57,3.24.19,2.82,3.3,5.25,6.06,5.18,1.72-.04,5.04-1.99,5.7-3.65.86-2.17,0-2.74-.21-4.49-.12-1.01.27-3.82-.12-4.45-.67-1.07-2.65,1.91-3.29,2.1-.96.29-1.75-.27-2.6-.21-.52.04-1.06.47-1.43.48-.84.02-2.23-2.77-3.57-2.37ZM117.14,214.73c-.58-.4-2.73,2.2-3.42,2.38-.55.14-1.02-.25-1.53-.21-1.03.09-1.67.73-2.83.1-.65-.35-2.19-2.45-2.99-1.87-.79,1.22.1,3.38-.04,4.52-.1.77-.8,1.61-.76,2.74.18,5.46,9.59,7.27,12.15,1.67,1.27-2.77-.4-3.06-.5-4.92-.03-.56.36-1.11.36-1.61,0-.4-.33-2.7-.45-2.78ZM137.87,220.94c-.43.71.32,3.51.24,4.38-.16,1.74-1.35,1.94-.32,4.38,1.83,4.35,8.74,4.74,11.3.71,1.83-2.88.17-3.27-.08-5.42-.11-.93.65-4.04-.14-4.49-.57-.32-2.78,2.37-3.35,2.46-.34.05-1.3-.2-1.9-.18-.67.02-1.55.36-2.07.24-1.31-.31-2.18-2.81-3.67-2.07Z"/>
    <path class="cls-3" d="M161.46,33.67l-.81,9,1.62.41.71-3.25,8.96-2.93-1.61,7.79,1.62.16,1.34-3.25,5.18-1.17,6.52,6.42c.48,1.05-1.69,2.21,1.07,3.21l2.42-5.1,5.12,5.65-.7,2.77,1.5.97,4.3-6.43,6.59,8.73,12.77.94,3.15,12.31,10.41,4.23c-.71.97-5.65,5.22-5.65,5.91,0,.35.7,1.2,1.1,1.1.73-.19,1.33-1.93,2.41-1.67,1.55.37,5.21,3.6,6.98,4.33l-5.37,3.9.81,1.88c.41.32,2.51-2.04,3.28-1.57,1.01,1.06,7.5,4.31,7.87,5.06.24.5.16,1.45.14,2.03-.03.66-.21,3.3-.33,3.7-.23.76-3.12,1.62-3.98,1.8l.93,1.8,7.94-3.14-.85,9.49c-.33.6-3.37,1.12-4.25,1.26l.55,2.15,9.4-2.69-3.18,11.09,9.1,9.2-6.41,11.76c.23,1.52,4.63,6.31,5.61,8.12.17.32.36.51.26.95l-9.39-.69-.51.33-.04,1.71c1.06.3,4.14-.01,4.69.82.26.39,2.3,8.75,2.02,9.13l-6.91-1.3c-.82-.04-.66,1.29-.58,1.81l3.89.82,1.19,7.4-4.03,4.58c-1.06.49-3.04-.77-4.28-.67l-.49,1.75,6.11,2.4-5.1,5.91-3.59-.16c-.47.81-1.14,1.39-.1,1.96,1.78.98,4.9,1.59,6.91,2.51.32.15.65-.02.54.52l-8.7,6.39.51,12.56-11.65,4.62-1.94,10.43-6.72-6.32-.77,1.56c.16.62,1.76,1.86,1.99,2.35.63,1.37-3.07,6.71-3.1,8.59-.38.08-.44-.06-.68-.26-.78-.69-3.72-5.23-4.52-5.09-2.73,1.7,1.05,2.74.86,4.08-.06.41-1.66,3.41-2,3.94-1.34,2.08-2.35,2.68-4.68,3.38-3.78,1.13-3.94,1.02-5.36-2.71l-1.6.45c-.49,1.11,2.7,5.82,2.4,6.15l-8.21.97c-.59-.09-1.16-1.98-1.2-2.58l-1.88.54,3.49,8.86-9.78-1.81-7.18,9.32-10.01-3.7-6.76,6.14-.94-8.33-1.88.27c-.17.17.68,3.44,0,3.9l-6.06,3.08c-.54.08-.35-.02-.39-.39-.22-1.67.36-4.12.16-5.49-.04-.26.01-.38-.31-.54l-1.73.25-.52,4.72c-.33.47-3.82,1.92-4.49,1.98-.84.08-4.84-1.31-5.34-1.88-1.41-1.62,1.31-5.96-2.56-5.1.46,1.97-.14,4.35-.13,6.44l-6.34-3.34-.25-3.65-1.59.03-1.11,7.76-6.84-5.9-9.66,3.73-7.33-9.34-9.76,1.84,3.5-9.13-1.63-.14-1.24,2.3-8.69-1.22c.51-1.26,2.62-3.51,2.91-4.63.25-.97-1.42-1.25-2.1-1.41-.11.73-1.41,3.03-2.06,3.16-1.98-.49-4.47-.56-6.15-1.82-1.07-.8-4.3-5.53-3.77-6.71.62-1.4,3.63-1.77.82-4.04-.34,0-3.63,4.67-4.32,5.35-.22.22-.24.38-.65.29l-3.76-7.93c1.04-1.95,3.29-2.09,1.87-4.69-.41-.11-.44.11-.67.26-.75.52-5.96,6.45-6.31,6.18l-1.93-10.17-11.75-4.37.45-12.68-8.81-6.5,8.3-3.54-.68-1.69-3.33.67-5.37-5.93c-.11-.53.11-.33.34-.46,1.47-.86,3.88-1.54,5.57-1.82l-.56-2.14-3.82.76c-.3-.08-4.35-4.15-4.44-4.45-.52-1.73,1.18-5.64,1.14-7.62.17-.24,1.52-.43,1.93-.49,1.97-.26,3.01.78,1.54-1.94-2.1.07-4.62,1.12-6.69.83-.38-.05-.45.16-.38-.39.33-2.7,1.51-5.77,2-8.48l4.41-.83.03-1.85-9.94.54,6.41-9.32-6.37-11.47,9.05-9.23-3.72-11.09,10.48,2.69.27-1.88-4.18-1.06-1.19-9.96,8.31,3.38c.64.06,1.21-1.16,1.07-1.75-.14-.19-2.88-1-3.4-1.3-1.27-.74-1.01-5-1.3-6.51.22-.42,7.4-5.13,7.94-5.27.9-.22,1.94,1.17,2.83,1.44l1.09-1.01-.28-.81-5.24-3.75,7.18-4,2.63,1.53c.52-.48,1.19-.71.69-1.44s-5.61-5.12-5.12-5.77l10.23-4.15,3.47-12.39,12.37-.8,6.86-8.46c.35-.17,1,1.15,1.21,1.47,1.01,1.52,1.73,3.23,2.81,4.7,1.18-.76,1.54-1.15.99-2.59-.16-.41-.61-.38-.58-.49.22-1.11,5.16-5.05,6.05-6.32l1.76,4.82,2.14-.8-.68-1.85c-.07-.26.05-.44.17-.65.9-1.66,4.79-4.55,6.07-6.32.28-.07,4.89,1.13,5.27,1.35.89.51.9,2.25,1.29,3.15l1.83-.26-1.32-7.5,8.48,2.94c.5.45.61,2.35.9,3.14.1.27-.13.49.4.34.3-.08,1.4-.66,1.46-.94l-1.03-8.44c.38-.3,7.18,4.15,8.45,4.04l8.88-7.22,9.13,7.2,8.2-4.29ZM71.88,216.76c47.27,47.86,126.44,37.46,159.93-20.7,28.39-49.31,11.22-111.53-38.19-139.06-24.26-13.51-54.81-16.32-81.28-7.82-71.91,23.08-93.55,113.83-40.46,167.58Z"/>
  </g>
  <g>
    <path class="cls-2" d="M116.19,173.78c-.49-.08-10.1,6.9-10.52,7.27-7.39,6.37-16.86,20.74-28.44,16.3-4.19-1.61-7.29-5.19-8.46-9.48-.96-3.53-1.85-12.13-1.15-15.57,1.07-5.25,11.44-5.66,15.57-5.2,1.88.21,6.94,1.83,7.4,3.86l.6,11.3c3.82-2.66,7.46-5.56,11.46-7.97.66-.39,5.54-2.03,5.65-2.43"/>
    <path class="cls-1" d="M87.38,171.5c.22,1.13-1.43,2.17-2.37,2.62-2.76,1.33-13.16,2.25-14.63-.95-1.34-2.93,4.58-3.99,6.51-4.19"/>
    <path class="cls-1" d="M109.96,174.24c-1.65,1.2-3.69,1.84-5.45,2.99-1.38.9-5.32,4.56-6.35,4.87-.53.16-1.32-.37-1.89-.38-.33-.42,7.65-5.81,8.4-6.19.85-.44,4.62-2.11,5.28-1.28Z"/>
    <line class="cls-4" x1="70.51" y1="178.25" x2="74" y2="178.78"/>
    <line class="cls-4" x1="70.78" y1="179.85" x2="73.73" y2="180.12"/>
    <path class="cls-4" d="M71.99,182.52c.58-.03,1.17.02,1.75,0"/>
    <path d="M80.05,173.71c-1.11.08-7.14.05-7.14-1.48.48-1.38,2.4-1.78,3.71-1.93,1.92-.23,5.79-.24,7.49.67"/>
    <path class="cls-1" d="M76.96,169.12c2.16-.22,9.95-.23,10.48,2.53.22,1.13-1.43,2.17-2.37,2.62-2.76,1.33-13.16,2.25-14.63-.95-1.34-2.93,4.58-3.99,6.51-4.19Z"/>
    <path d="M76.69,170.45c1.92-.23,5.79-.24,7.49.67,2.98,1.6-2.85,2.65-4.07,2.74-1.11.08-7.14.05-7.14-1.48.48-1.38,2.4-1.78,3.71-1.93Z"/>
  </g>
</svg>